<svg width="296" height="98" viewBox="0 0 296 98" fill="none" xmlns="http://www.w3.org/2000/svg">
<path d="M281.036 4.716L281.036 20.484L278.012 20.484L278.012 4.716L281.036 4.716ZM287.588 11.16L287.588 14.004L271.46 14.004L271.46 11.16L287.588 11.16Z" fill="#FFAA38"/>
<path d="M14.6359 4.716L14.6359 20.484L17.6599 20.484L17.6599 4.716L14.6359 4.716ZM8.08388 11.16L8.08388 14.004L24.2119 14.004L24.2119 11.16L8.08388 11.16Z" fill="#FFAA38"/>
<path d="M244.984 70.4202L244.984 77.4282L246.328 77.4282L246.328 70.4202L244.984 70.4202ZM242.072 73.2842L242.072 74.5482L249.24 74.5482L249.24 73.2842L242.072 73.2842Z" fill="#FFAA38"/>
<path d="M172.984 70.4202L172.984 77.4282L174.328 77.4282L174.328 70.4202L172.984 70.4202ZM170.072 73.2842L170.072 74.5482L177.24 74.5482L177.24 73.2842L170.072 73.2842Z" fill="#FFAA38"/>
<path d="M50.6879 70.4202L50.6879 77.4282L49.3439 77.4282L49.3439 70.4202L50.6879 70.4202ZM53.5999 73.2842L53.5999 74.5482L46.4319 74.5482L46.4319 73.2842L53.5999 73.2842Z" fill="#FFAA38"/>
<path d="M117.688 70.4202L117.688 77.4282L116.344 77.4282L116.344 70.4202L117.688 70.4202ZM120.6 73.2842L120.6 74.5482L113.432 74.5482L113.432 73.2842L120.6 73.2842Z" fill="#FFAA38"/>
<path d="M213.016 50.096L213.016 57.104L211.672 57.104L211.672 50.096L213.016 50.096ZM215.928 52.96L215.928 54.224L208.76 54.224L208.76 52.96L215.928 52.96Z" fill="#FFAA38"/>
<path d="M141.016 50.096L141.016 57.104L139.672 57.104L139.672 50.096L141.016 50.096ZM143.928 52.96L143.928 54.224L136.76 54.224L136.76 52.96L143.928 52.96Z" fill="#FFAA38"/>
<path d="M82.6559 50.096L82.6559 57.104L83.9999 57.104L83.9999 50.096L82.6559 50.096ZM79.7439 52.96L79.7439 54.224L86.9119 54.224L86.9119 52.96L79.7439 52.96Z" fill="#FFAA38"/>
<path d="M239.984 23.096L239.984 30.104L241.328 30.104L241.328 23.096L239.984 23.096ZM237.072 25.96L237.072 27.224L244.24 27.224L244.24 25.96L237.072 25.96Z" fill="#FFAA38"/>
<path d="M141.984 82.096L141.984 89.104L143.328 89.104L143.328 82.096L141.984 82.096ZM139.072 84.96L139.072 86.224L146.24 86.224L146.24 84.96L139.072 84.96Z" fill="#FFAA38"/>
<path d="M55.6879 23.096L55.6879 30.104L54.3439 30.104L54.3439 23.096L55.6879 23.096ZM58.5999 25.96L58.5999 27.224L51.4319 27.224L51.4319 25.96L58.5999 25.96Z" fill="#FFAA38"/>
<path d="M273.984 50.096L273.984 57.104L275.328 57.104L275.328 50.096L273.984 50.096ZM271.072 52.96L271.072 54.224L278.24 54.224L278.24 52.96L271.072 52.96Z" fill="#FFAA38"/>
<path d="M21.6879 50.096L21.6879 57.104L20.3439 57.104L20.3439 50.096L21.6879 50.096ZM24.5999 52.96L24.5999 54.224L17.4319 54.224L17.4319 52.96L24.5999 52.96Z" fill="#FFAA38"/>
<path d="M283.636 77.716L283.636 93.484L286.66 93.484L286.66 77.716L283.636 77.716ZM277.084 84.16L277.084 87.004L293.212 87.004L293.212 84.16L277.084 84.16Z" fill="#FFAA38"/>
<path d="M12.036 77.716L12.036 93.484L9.012 93.484L9.012 77.716L12.036 77.716ZM18.588 84.16L18.588 87.004L2.46 87.004L2.46 84.16L18.588 84.16Z" fill="#FFAA38"/>
<path d="M210.474 83.406L210.474 94.794L212.658 94.794L212.658 83.406L210.474 83.406ZM205.742 88.06L205.742 90.114L217.39 90.114L217.39 88.06L205.742 88.06Z" fill="#FFAA38"/>
<path d="M85.1979 83.406L85.1979 94.794L83.0139 94.794L83.0139 83.406L85.1979 83.406ZM89.9299 88.06L89.9299 90.114L78.2819 90.114L78.2819 88.06L89.9299 88.06Z" fill="#FFAA38"/>
</svg>
