<svg width="81" height="81" viewBox="0 0 81 81" fill="none" xmlns="http://www.w3.org/2000/svg">
<path d="M35.8458 8.67544C37.6228 5.27723 42.4865 5.27723 44.2636 8.67544C45.587 11.2062 48.8285 12.0051 51.1765 10.3793C54.3292 8.19619 58.6358 10.4565 58.6301 14.2913C58.6259 17.1472 61.1248 19.361 63.9593 19.0125C67.7655 18.5447 70.5284 22.5474 68.7412 25.9403C67.4103 28.4671 68.5941 31.5886 71.2659 32.5974C74.8535 33.9519 75.4398 38.7801 72.2806 40.9539C69.9278 42.5727 69.5254 45.8869 71.4224 48.0217C73.9696 50.8883 72.2449 55.436 68.4374 55.8925C65.6018 56.2326 63.7053 58.9801 64.3929 61.752C65.3161 65.474 61.6756 68.6992 58.092 67.334C55.4232 66.3174 52.4671 67.8689 51.7878 70.6428C50.8756 74.3675 46.1533 75.5315 43.6146 72.6573C41.7239 70.5168 38.3854 70.5168 36.4948 72.6573C33.9561 75.5315 29.2338 74.3675 28.3216 70.6428C27.6422 67.8689 24.6861 66.3174 22.0173 67.334C18.4337 68.6992 14.7932 65.474 15.7165 61.752C16.4041 58.9801 14.5076 56.2326 11.672 55.8925C7.86446 55.436 6.13978 50.8883 8.687 48.0217C10.584 45.8869 10.1816 42.5727 7.82881 40.9539C4.66958 38.7801 5.25583 33.9519 8.84346 32.5974C11.5153 31.5886 12.6991 28.4671 11.3682 25.9403C9.58099 22.5474 12.3439 18.5447 16.15 19.0125C18.9846 19.361 21.4835 17.1472 21.4793 14.2913C21.4736 10.4565 25.7801 8.19619 28.9329 10.3793C31.2808 12.0051 34.5223 11.2062 35.8458 8.67544Z" fill="url(#paint0_linear_3851_16021)"/>
<path d="M28.1947 40.537H31.6747V41.607H28.1947V40.537ZM28.2947 43.537H32.2447V44.627H26.9947V37.627H32.1047V38.717H28.2947V43.537ZM32.7039 44.627L35.8539 37.627H37.1339L40.2939 44.627H38.9339L36.2239 38.317H36.7439L34.0439 44.627H32.7039ZM34.1539 43.007L34.5039 41.987H38.2839L38.6339 43.007H34.1539ZM41.1841 44.627V37.627H44.0641C44.6841 37.627 45.2141 37.727 45.6541 37.927C46.1008 38.127 46.4441 38.4136 46.6841 38.787C46.9241 39.1603 47.0441 39.6036 47.0441 40.117C47.0441 40.6303 46.9241 41.0736 46.6841 41.447C46.4441 41.8136 46.1008 42.097 45.6541 42.297C45.2141 42.4903 44.6841 42.587 44.0641 42.587H41.9041L42.4841 41.997V44.627H41.1841ZM45.7641 44.627L43.9941 42.087H45.3841L47.1641 44.627H45.7641ZM42.4841 42.137L41.9041 41.517H44.0041C44.5775 41.517 45.0075 41.3936 45.2941 41.147C45.5875 40.9003 45.7341 40.557 45.7341 40.117C45.7341 39.6703 45.5875 39.327 45.2941 39.087C45.0075 38.847 44.5775 38.727 44.0041 38.727H41.9041L42.4841 38.087V42.137ZM48.4986 44.627V37.627H49.5686L53.9586 43.017H53.4286V37.627H54.7186V44.627H53.6486L49.2586 39.237H49.7886V44.627H48.4986Z" fill="url(#paint1_linear_3851_16021)"/>
<defs>
<linearGradient id="paint0_linear_3851_16021" x1="40.0547" y1="0.626953" x2="40.0547" y2="80.627" gradientUnits="userSpaceOnUse">
<stop stop-color="#8345B6"/>
<stop offset="1" stop-color="#6E2CA5"/>
</linearGradient>
<linearGradient id="paint1_linear_3851_16021" x1="41.0547" y1="34.627" x2="50.4278" y2="52.095" gradientUnits="userSpaceOnUse">
<stop stop-color="white"/>
<stop offset="1" stop-color="#B5BFBF"/>
</linearGradient>
</defs>
</svg>
