<svg width="324" height="114" viewBox="0 0 324 114" fill="none" xmlns="http://www.w3.org/2000/svg">
<rect width="324" height="114" fill="#FFE4C0"/>
<g clip-path="url(#clip0_4_18)">
<path d="M307.036 98.284V82.516H304.012V98.284H307.036ZM313.588 91.84V88.996H297.46V91.84H313.588Z" fill="#FFAA38"/>
<path d="M16.6359 98.284V82.516H19.6599V98.284H16.6359ZM10.0839 91.84V88.996H26.2119V91.84H10.0839Z" fill="#FFAA38"/>
<path d="M270.984 32.5798V25.5718H272.328V32.5798H270.984ZM268.072 29.7158V28.4518H275.24V29.7158H268.072Z" fill="#FFAA38"/>
<path d="M52.6879 32.5798V25.5718H51.3439V32.5798H52.6879ZM55.5999 29.7158V28.4518H48.4319V29.7158H55.5999Z" fill="#FFAA38"/>
<path d="M239.016 52.904V45.896H237.672V52.904H239.016ZM241.928 50.04V48.776H234.76V50.04H241.928Z" fill="#FFAA38"/>
<path d="M84.6559 52.904V45.896H85.9999V52.904H84.6559ZM81.7439 50.04V48.776H88.9119V50.04H81.7439Z" fill="#FFAA38"/>
<path d="M265.984 79.904V72.896H267.328V79.904H265.984ZM263.072 77.04V75.776H270.24V77.04H263.072Z" fill="#FFAA38"/>
<path d="M57.6879 79.904V72.896H56.3439V79.904H57.6879ZM60.5999 77.04V75.776H53.4319V77.04H60.5999Z" fill="#FFAA38"/>
<path d="M299.984 52.904V45.896H301.328V52.904H299.984ZM297.072 50.04V48.776H304.24V50.04H297.072Z" fill="#FFAA38"/>
<path d="M23.6879 52.904V45.896H22.3439V52.904H23.6879ZM26.5999 50.04V48.776H19.4319V50.04H26.5999Z" fill="#FFAA38"/>
<path d="M309.636 25.284V9.51599H312.66V25.284H309.636ZM303.084 18.84V15.996H319.212V18.84H303.084Z" fill="#FFAA38"/>
<path d="M14.036 25.284V9.51599H11.012V25.284H14.036ZM20.588 18.84V15.996H4.46V18.84H20.588Z" fill="#FFAA38"/>
<path d="M236.474 19.594V8.20599H238.658V19.594H236.474ZM231.742 14.94V12.886H243.39V14.94H231.742Z" fill="#FFAA38"/>
<path d="M87.1979 19.594V8.20599H85.0139V19.594H87.1979ZM91.9299 14.94V12.886H80.2819V14.94H91.9299Z" fill="#FFAA38"/>
</g>
<defs>
<clipPath id="clip0_4_18">
<rect width="316" height="91" fill="white" transform="translate(4 8)"/>
</clipPath>
</defs>
</svg>
