<svg width="303" height="171" viewBox="0 0 303 171" fill="none" xmlns="http://www.w3.org/2000/svg">
<path d="M290.18 139.293C290.463 138.299 290.998 137.394 291.732 136.666C292.466 135.938 293.375 135.41 294.371 135.135L295 134.961L294.371 134.787C293.375 134.512 292.466 133.984 291.732 133.256C290.998 132.528 290.463 131.623 290.18 130.629L290 130L289.82 130.629C289.537 131.623 289.002 132.528 288.268 133.256C287.534 133.984 286.625 134.512 285.629 134.787L285 134.961L285.629 135.135C286.625 135.41 287.534 135.938 288.268 136.666C289.002 137.394 289.537 138.299 289.82 139.293L290 139.922L290.18 139.293Z" fill="#49D096"/>
<path d="M15.8055 139.798C16.2874 138.108 17.1959 136.57 18.4437 135.332C19.6915 134.094 21.2367 133.198 22.9309 132.729L24 132.434L22.9309 132.138C21.2367 131.67 19.6915 130.773 18.4437 129.535C17.1959 128.298 16.2874 126.759 15.8055 125.069L15.5 124L15.1945 125.069C14.7126 126.759 13.8041 128.298 12.5563 129.535C11.3085 130.773 9.76328 131.67 8.06914 132.138L7 132.434L8.06914 132.729C9.76328 133.198 11.3085 134.094 12.5563 135.332C13.8041 136.57 14.7126 138.108 15.1945 139.798L15.5 140.867L15.8055 139.798Z" fill="#49D096"/>
<path d="M215.18 170.293C215.463 169.299 215.998 168.394 216.732 167.666C217.466 166.938 218.375 166.41 219.371 166.135L220 165.961L219.371 165.787C218.375 165.512 217.466 164.984 216.732 164.256C215.998 163.528 215.463 162.623 215.18 161.629L215 161L214.82 161.629C214.537 162.623 214.002 163.528 213.268 164.256C212.534 164.984 211.625 165.512 210.629 165.787L210 165.961L210.629 166.135C211.625 166.41 212.534 166.938 213.268 167.666C214.002 168.394 214.537 169.299 214.82 170.293L215 170.922L215.18 170.293Z" fill="#49D096"/>
<path d="M81.1797 159.293C81.4632 158.299 81.9976 157.394 82.7316 156.666C83.4656 155.938 84.3745 155.41 85.3711 155.135L86 154.961L85.3711 154.787C84.3745 154.512 83.4656 153.984 82.7316 153.256C81.9976 152.528 81.4632 151.623 81.1797 150.629L81 150L80.8203 150.629C80.5368 151.623 80.0024 152.528 79.2684 153.256C78.5344 153.984 77.6255 154.512 76.6289 154.787L76 154.961L76.6289 155.135C77.6255 155.41 78.5344 155.938 79.2684 156.666C80.0024 157.394 80.5368 158.299 80.8203 159.293L81 159.922L81.1797 159.293Z" fill="#49D096"/>
<path d="M45.1797 87.293C45.4632 86.2986 45.9976 85.3939 46.7316 84.6657C47.4656 83.9375 48.3745 83.4103 49.3711 83.1348L50 82.9609L49.3711 82.7871C48.3745 82.5116 47.4656 81.9844 46.7316 81.2562C45.9976 80.528 45.4632 79.6232 45.1797 78.6289L45 78L44.8203 78.6289C44.5368 79.6232 44.0024 80.528 43.2684 81.2562C42.5344 81.9844 41.6255 82.5116 40.6289 82.7871L40 82.9609L40.6289 83.1348C41.6255 83.4103 42.5344 83.9375 43.2684 84.6657C44.0024 85.3939 44.5368 86.2986 44.8203 87.293L45 87.9219L45.1797 87.293Z" fill="#49D096"/>
<path d="M9.32344 16.7273C9.83369 14.9376 10.7956 13.3091 12.1169 11.9983C13.4381 10.6875 15.0742 9.73858 16.868 9.24258L18 8.92969L16.868 8.6168C15.0742 8.1208 13.4381 7.17183 12.1169 5.86108C10.7956 4.55032 9.83369 2.92182 9.32344 1.13203L9 0L8.67656 1.13203C8.16631 2.92182 7.20437 4.55032 5.88315 5.86108C4.56192 7.17183 2.92582 8.1208 1.13203 8.6168L0 8.92969L1.13203 9.24258C2.92582 9.73858 4.56192 10.6875 5.88315 11.9983C7.20437 13.3091 8.16631 14.9376 8.67656 16.7273L9 17.8594L9.32344 16.7273Z" fill="#49D096"/>
<path d="M293.826 15.8346C294.309 14.1404 295.219 12.5988 296.47 11.358C297.721 10.1172 299.27 9.21885 300.968 8.74932L302.039 8.45312L300.968 8.15693C299.27 7.6874 297.721 6.78908 296.47 5.54828C295.219 4.30748 294.309 2.76589 293.826 1.07162L293.52 0L293.214 1.07162C292.73 2.76589 291.82 4.30748 290.569 5.54828C289.318 6.78908 287.77 7.6874 286.072 8.15693L285 8.45312L286.072 8.74932C287.77 9.21885 289.318 10.1172 290.569 11.358C291.82 12.5988 292.73 14.1404 293.214 15.8346L293.52 16.9063L293.826 15.8346Z" fill="#49D096"/>
<path d="M224.662 37.3637C224.917 36.4688 225.398 35.6545 226.058 34.9991C226.719 34.3438 227.537 33.8693 228.434 33.6213L229 33.4648L228.434 33.3084C227.537 33.0604 226.719 32.5859 226.058 31.9305C225.398 31.2752 224.917 30.4609 224.662 29.566L224.5 29L224.338 29.566C224.083 30.4609 223.602 31.2752 222.942 31.9305C222.281 32.5859 221.463 33.0604 220.566 33.3084L220 33.4648L220.566 33.6213C221.463 33.8693 222.281 34.3438 222.942 34.9991C223.602 35.6545 224.083 36.4688 224.338 37.3637L224.5 37.9297L224.662 37.3637Z" fill="#49D096"/>
<path d="M80.2156 44.1516C80.5558 42.9584 81.1971 41.8727 82.0779 40.9989C82.9587 40.125 84.0495 39.4924 85.2453 39.1617L86 38.9531L85.2453 38.7445C84.0495 38.4139 82.9587 37.7812 82.0779 36.9074C81.1971 36.0335 80.5558 34.9479 80.2156 33.7547L80 33L79.7844 33.7547C79.4442 34.9479 78.8029 36.0335 77.9221 36.9074C77.0413 37.7812 75.9505 38.4139 74.7547 38.7445L74 38.9531L74.7547 39.1617C75.9505 39.4924 77.0413 40.125 77.9221 40.9989C78.8029 41.8727 79.4442 42.9584 79.7844 44.1516L80 44.9063L80.2156 44.1516Z" fill="#49D096"/>
<path d="M267.216 76.1516C267.556 74.9584 268.197 73.8727 269.078 72.9989C269.959 72.125 271.049 71.4924 272.245 71.1617L273 70.9531L272.245 70.7445C271.049 70.4139 269.959 69.7812 269.078 68.9074C268.197 68.0335 267.556 66.9479 267.216 65.7547L267 65L266.784 65.7547C266.444 66.9479 265.803 68.0335 264.922 68.9074C264.041 69.7812 262.951 70.4139 261.755 70.7445L261 70.9531L261.755 71.1617C262.951 71.4924 264.041 72.125 264.922 72.9989C265.803 73.8727 266.444 74.9584 266.784 76.1516L267 76.9063L267.216 76.1516Z" fill="#49D096"/>
</svg>
