<svg width="296" height="98" viewBox="0 0 296 98" fill="none" xmlns="http://www.w3.org/2000/svg">
<path d="M14.6359 93.284L14.6359 77.516H17.6599V93.284H14.6359ZM8.08388 86.84V83.996H24.2119V86.84H8.08388Z" fill="#FFAA38"/>
<path d="M281.036 93.284V77.516H278.012V93.284H281.036ZM287.588 86.84V83.996H271.46V86.84H287.588Z" fill="#FFAA38"/>
<path d="M50.6879 27.5798V20.5718H49.3439V27.5798H50.6879ZM53.5999 24.7158V23.4518H46.4319V24.7158H53.5999Z" fill="#FFAA38"/>
<path d="M122.688 27.5798V20.5718H121.344V27.5798H122.688ZM125.6 24.7158V23.4518H118.432V24.7158H125.6Z" fill="#FFAA38"/>
<path d="M244.984 27.5798V20.5718H246.328V27.5798H244.984ZM242.072 24.7158V23.4518H249.24V24.7158H242.072Z" fill="#FFAA38"/>
<path d="M177.984 27.5798V20.5718H179.328V27.5798H177.984ZM175.072 24.7158V23.4518H182.24V24.7158H175.072Z" fill="#FFAA38"/>
<path d="M82.6559 47.904V40.896H83.9999V47.904H82.6559ZM79.7439 45.04V43.776H86.9119V45.04H79.7439Z" fill="#FFAA38"/>
<path d="M154.656 47.904V40.896H156V47.904H154.656ZM151.744 45.04V43.776H158.912V45.04H151.744Z" fill="#FFAA38"/>
<path d="M213.016 47.904V40.896H211.672V47.904H213.016ZM215.928 45.04V43.776H208.76V45.04H215.928Z" fill="#FFAA38"/>
<path d="M55.6879 74.904V67.896H54.3439V74.904H55.6879ZM58.5999 72.04V70.776H51.4319V72.04H58.5999Z" fill="#FFAA38"/>
<path d="M153.688 15.904V8.896H152.344V15.904H153.688ZM156.6 13.04V11.776H149.432V13.04H156.6Z" fill="#FFAA38"/>
<path d="M239.984 74.904V67.896H241.328V74.904H239.984ZM237.072 72.04V70.776H244.24V72.04H237.072Z" fill="#FFAA38"/>
<path d="M21.6879 47.904V40.896H20.3439V47.904H21.6879ZM24.5999 45.04V43.776H17.4319V45.04H24.5999Z" fill="#FFAA38"/>
<path d="M273.984 47.904V40.896H275.328V47.904H273.984ZM271.072 45.04V43.776H278.24V45.04H271.072Z" fill="#FFAA38"/>
<path d="M12.036 20.284L12.036 4.516H9.012L9.012 20.284H12.036ZM18.588 13.84V10.996L2.46 10.996V13.84L18.588 13.84Z" fill="#FFAA38"/>
<path d="M283.636 20.284V4.516H286.66V20.284H283.636ZM277.084 13.84V10.996L293.212 10.996V13.84L277.084 13.84Z" fill="#FFAA38"/>
<path d="M85.1979 14.594V3.206H83.0139V14.594L85.1979 14.594ZM89.9299 9.94V7.886L78.2819 7.886V9.94L89.9299 9.94Z" fill="#FFAA38"/>
<path d="M210.474 14.594V3.206H212.658V14.594L210.474 14.594ZM205.742 9.94V7.886L217.39 7.886V9.94L205.742 9.94Z" fill="#FFAA38"/>
</svg>
